<svg width="90" height="90" viewBox="0 0 90 90" fill="none" xmlns="http://www.w3.org/2000/svg">
<path d="M15 75V26.625L7.6875 10.6875L14.4375 7.5L23.25 26.4375H66.75L75.5625 7.5L82.3125 10.6875L75 26.625V75H15ZM37.5 48.75H52.5C53.5625 48.75 54.4531 48.3906 55.1719 47.6719C55.8906 46.9531 56.25 46.0625 56.25 45C56.25 43.9375 55.8906 43.0469 55.1719 42.3281C54.4531 41.6094 53.5625 41.25 52.5 41.25H37.5C36.4375 41.25 35.5469 41.6094 34.8281 42.3281C34.1094 43.0469 33.75 43.9375 33.75 45C33.75 46.0625 34.1094 46.9531 34.8281 47.6719C35.5469 48.3906 36.4375 48.75 37.5 48.75ZM22.5 67.5H67.5V33.9375H22.5V67.5Z" fill="#409618"/>
</svg>
