<svg width="24" height="24" viewBox="0 0 24 24" fill="none" xmlns="http://www.w3.org/2000/svg">
<path d="M2.36541 20.5769V4.32691L7.11539 0.884613L11.8654 4.32691V7.07694H21.6346V20.5769H2.36541ZM3.86536 19.0769H6.36539V16.5769H3.86536V19.0769ZM3.86536 15.0769H6.36539V12.5769H3.86536V15.0769ZM3.86536 11.0769H6.36539V8.57691H3.86536V11.0769ZM3.86536 7.07694H6.36539V4.57691H3.86536V7.07694ZM7.86536 7.07694H10.3654V4.57691H7.86536V7.07694ZM7.86536 19.0769H20.1346V8.57691H7.86536V19.0769ZM14.0577 12.5769V11.0769H17.75V12.5769H14.0577ZM14.0577 16.5769V15.0769H17.75V16.5769H14.0577ZM10.3654 12.5769V11.0769H11.8654V12.5769H10.3654ZM10.3654 16.5769V15.0769H11.8654V16.5769H10.3654Z" fill="#409618"/>
</svg>
